<svg id="xian" data-name="xian" xmlns="http://www.w3.org/2000/svg" viewBox="0 0 385.04 681.98">
    <defs>
        <style>
            .xian-1,
            .xian-2,
            .xian-3,
            .xian-4,
            .xian-5,
            .xian-6,
            .xian-7,
            .xian-8 {
                fill: none;
                stroke-opacity: 0.7;
            }

            .xian-1,
            .xian-2 {
                stroke: #8dd3c7;
            }

            .xian-1,
            .xian-4 {
                stroke-width: 34.21px;
            }

            .xian-2,
            .xian-3,
            .xian-5,
            .xian-6,
            .xian-7,
            .xian-8 {
                stroke-width: 17.11px;
            }

            .xian-3,
            .xian-4 {
                stroke: #fdb462;
            }

            .xian-5 {
                stroke: #bebada;
            }

            .xian-6 {
                stroke: #fb8072;
            }

            .xian-7 {
                stroke: #80b1d3;
            }

            .xian-8 {
                stroke: #b3de69;
            }

            .xian-9 {
                font-size: 16px;
                font-family: DengXian, DengXian;
            }
        </style>
    </defs>
    <title>xian</title>
    <path class="xian-1" d="M111.53,665.5c0-328.5,211.05-296.5,211.05-625" transform="translate(-18 -6.07)" />
    <path class="xian-2" d="M51.66,665.5C51.66,337,123,369,123,40.5" transform="translate(-18 -6.07)" />
    <path class="xian-2" d="M34.55,665.5c0-328.5,10-296.5,10-625" transform="translate(-18 -6.07)" />
    <path class="xian-1" d="M77.32,665.5c0-328.5,149.74-296.5,149.74-625" transform="translate(-18 -6.07)" />
    <path class="xian-3" d="M198.5,665.5c0-328.5,54.21-296.5,54.21-625" transform="translate(-18 -6.07)" />
    <path class="xian-4" d="M155.74,665.5c0-328.5-85.53-296.5-85.53-625" transform="translate(-18 -6.07)" />
    <path class="xian-3" d="M215.61,665.5c0-328.5,132.63-296.5,132.63-625" transform="translate(-18 -6.07)" />
    <path class="xian-3" d="M181.39,665.5c0-328.5-41.32-296.5-41.32-625" transform="translate(-18 -6.07)" />
    <path class="xian-5" d="M242.71,665.5C242.71,337,95.87,369,95.87,40.5" transform="translate(-18 -6.07)" />
    <path class="xian-5" d="M294,665.5c0-328.5,71.32-296.5,71.32-625" transform="translate(-18 -6.07)" />
    <path class="xian-5" d="M259.82,665.5c0-328.5-102.63-296.5-102.63-625" transform="translate(-18 -6.07)" />
    <path class="xian-5" d="M276.92,665.5c0-328.5-7.11-296.5-7.11-625" transform="translate(-18 -6.07)" />
    <path class="xian-6" d="M321.13,665.5c0-328.5-146.84-296.5-146.84-625" transform="translate(-18 -6.07)" />
    <path class="xian-7" d="M348.24,665.5c0-328.5-156.84-296.5-156.84-625" transform="translate(-18 -6.07)" />
    <path class="xian-7" d="M365.34,665.5c0-328.5-78.42-296.5-78.42-625" transform="translate(-18 -6.07)" />
    <path class="xian-8" d="M392.45,665.5c0-328.5-10-296.5-10-625" transform="translate(-18 -6.07)" />
    <rect x="8" y="659.43" width="102.63" height="5" />
    <rect x="120.63" y="659.43" width="85.53" height="5" />
    <rect x="216.16" y="659.43" width="68.42" height="5" />
    <rect x="294.58" y="659.43" width="17.11" height="5" />
    <rect x="321.68" y="659.43" width="34.21" height="5" />
    <rect x="365.89" y="659.43" width="17.11" height="5" />
    <rect x="96.42" y="29.43" width="85.53" height="5" />
    <rect x="287.47" y="29.43" width="85.53" height="4.04" />
    <rect x="18" y="29.43" width="68.42" height="5" />
    <rect x="191.95" y="29.43" width="85.53" height="5" /><text class="xian-9"
        transform="translate(43.21 677.43)">PM2.5</text><text class="xian-9"
        transform="translate(144.21 677.43)">PM10</text><text class="xian-9"
        transform="translate(232.21 677.43)">O3</text><text class="xian-9"
        transform="translate(289 677.43)">SO2</text><text class="xian-9" transform="translate(363 677.93)">CO</text><text
        class="xian-9" transform="translate(324 677.43)">NO2</text><text class="xian-9"
        transform="translate(39 14.93)">交通</text><text class="xian-9" transform="translate(123 12.93)">发电</text><text
        class="xian-9" transform="translate(221 13.93)">居民</text><text class="xian-9"
        transform="translate(319 12.93)">工业</text>
    <polygon points="0 350.93 11 350.93 11 350.93 0 350.93 0 350.93" />
</svg>